<svg version="1.1" xmlns="http://www.w3.org/2000/svg" xmlns:xlink="http://www.w3.org/1999/xlink" width="648.98529" height="231.51084" viewBox="129.50806,321.74511,648.98529,231.51084"><g fill="none" fill-rule="nonzero" stroke="none" stroke-width="1" stroke-linecap="butt" stroke-linejoin="miter" stroke-miterlimit="10" stroke-dasharray="" stroke-dashoffset="0" font-family="none" font-weight="none" font-size="none" text-anchor="none" style="mix-blend-mode: normal"><path d="M208.0238,435.94434c-8.3794,0 -7.70905,9.21734 -7.54146,10.89322l11.89875,1.00553l0.16759,58.82339c0,23.7975 -10.05528,33.18242 -26.4789,33.18242c-17.93192,0 -23.46232,-11.39598 -23.46232,-35.19348v-57.14751l4.86005,-0.33518c8.21181,-0.50276 7.20628,-9.55252 7.37387,-11.2284h-37.7073c-8.3794,0 -7.70905,9.21734 -7.54146,10.89322l12.06634,1.00553v54.13092c0,39.55077 16.7588,51.28193 41.39424,51.28193c28.32237,0 42.90253,-15.4181 42.90253,-51.11434v-54.63369l4.86005,-0.33518c8.21181,-0.50276 7.20628,-9.55252 7.37387,-11.2284zM302.04067,463.59636c-8.3794,0 -19.77538,8.04422 -24.80302,14.74774h-0.50276l-1.50829,-13.9098l-30.33343,3.85452c0,2.17864 -0.16759,9.55252 5.19523,10.05528l7.37387,0.83794v59.9965l-4.86005,0.33518c-8.21181,0.50276 -7.20628,9.55252 -7.37387,11.2284h38.71283c8.3794,0 7.70905,-9.21734 7.54146,-10.89322l-13.57463,-1.00553v-47.4274c3.85452,-6.20076 9.38493,-10.89322 15.08292,-10.89322c3.35176,0 6.36834,0.67035 6.36834,12.5691c4.02211,0.50276 7.20628,0.50276 9.55252,-1.3407c2.68141,-2.34623 5.5304,-7.20628 5.5304,-14.07739c0,-10.05528 -6.36834,-14.07739 -12.40151,-14.07739zM349.80325,485.71798c5.5304,-5.02764 10.39046,-7.54146 16.59121,-7.54146c13.23945,0 19.6078,11.39598 19.6078,30.16584c0,15.08292 -3.18417,31.33896 -18.93744,31.33896c-7.0387,0 -13.23945,-3.35176 -17.26156,-6.70352zM349.80325,430.9167l-33.18242,3.68694c-0.16759,2.17864 -0.16759,9.7201 6.20076,10.39046l6.53593,0.67035v98.37416l20.44574,6.36834v0c4.35729,1.84347 9.21734,2.849 15.92086,2.849c28.48996,0 41.897,-21.28368 41.56182,-48.76811c-0.50276,-30.83619 -17.93192,-40.89147 -34.02036,-40.89147c-10.39046,0 -17.42915,3.51935 -23.46232,8.54699zM467.45002,534.82126c-4.52488,3.01658 -9.55252,4.86005 -15.92086,4.86005c-7.87664,0 -12.06634,-4.1897 -12.06634,-11.06081c0,-9.04975 7.37387,-12.5691 15.08292,-12.5691c4.35729,0 8.71458,0.67035 12.90428,2.17864zM487.89576,541.85996v-44.746c0,-23.7975 -13.57463,-33.5176 -34.52313,-33.5176c-17.93192,0 -29.99825,7.87664 -29.99825,18.43468c0,7.87664 7.0387,11.39598 15.58568,10.55804c0,-10.22287 6.70352,-15.58568 13.23945,-15.58568c9.88769,0 15.25051,5.19523 15.25051,21.28368v7.37387c-4.35729,-0.67035 -9.04975,-1.00553 -13.74222,-1.00553c-26.31132,0 -35.52866,11.73116 -35.52866,25.30579c0,14.58016 10.89322,23.29473 26.14373,23.29473c9.7201,0 17.76433,-3.18417 24.46785,-8.71458c2.17864,5.02764 6.87111,8.71458 16.08845,8.71458c11.39598,0 13.9098,-5.36282 13.9098,-10.05528zM594.14655,538.84337v-40.05353c0,-25.64096 -15.58568,-35.19348 -30.83619,-35.19348c-11.73116,0 -19.10503,5.5304 -25.64096,11.2284h-0.50276l-1.17312,-10.22287l-30.33343,3.68694c-0.16759,2.17864 -0.16759,9.7201 6.20076,10.39046l6.53593,0.67035v59.82892l-5.19523,0.33518c-8.21181,0.50276 -7.20628,9.55252 -7.37387,11.2284h37.37212c8.3794,0 7.70905,-9.21734 7.54146,-10.89322l-11.89875,-1.00553v-50.77916c5.69799,-4.86005 10.55804,-7.70905 19.94297,-7.70905c9.04975,0 14.91533,4.02211 14.91533,17.59674v41.22665l-4.86005,0.33518c-8.21181,0.50276 -7.20628,9.55252 -7.37387,11.2284h37.03695c8.3794,0 7.70905,-9.21734 7.54146,-10.89322zM696.37523,539.51373v-73.40354h-26.14373c-8.21181,0 -7.20628,10.22287 -7.37387,11.89875h13.07186v54.29851c-4.86005,3.68694 -9.38493,5.69799 -16.08845,5.69799c-10.39046,0 -16.25604,-4.86005 -16.25604,-19.10503v-52.79022h-25.30579c-8.21181,0 -7.20628,10.22287 -7.37387,11.89875h12.23392v40.05353c0,25.64096 15.58568,35.19348 31.00378,35.19348c10.89322,0 18.0995,-4.86005 24.30026,-10.22287l3.51935,9.38493l23.7975,-2.34623c0,-2.17864 0.16759,-10.39046 -5.69799,-10.55804zM749.50063,463.59636c-16.7588,0 -33.01484,8.3794 -33.01484,25.47338c0,15.75327 13.9098,22.62438 26.98167,27.81961c10.22287,4.02211 18.0995,6.87111 18.0995,14.41257c0,6.87111 -6.70352,9.21734 -13.9098,9.21734c-12.06634,0 -18.0995,-6.70352 -19.44021,-17.09398c-7.0387,0 -14.07739,4.02211 -14.07739,12.40151c0,12.5691 15.58568,17.42915 29.3279,17.42915c21.78644,0 35.02589,-12.40151 35.02589,-28.48996c0,-15.58568 -12.40151,-21.28368 -25.97614,-26.81408c-11.56357,-4.69246 -19.77538,-8.21181 -19.77538,-14.07739c0,-4.35729 4.69246,-7.87664 11.39598,-7.87664c9.04975,0 16.59121,6.53593 16.59121,14.74774c7.70905,1.17312 13.40704,-3.51935 13.40704,-11.56357c0,-12.23392 -13.9098,-15.58568 -24.63544,-15.58568z" id="CompoundPath 1" fill="#9ac670"/><path d="M410.22911,336.99561c14.41257,-0.50276 22.95956,8.21181 22.95956,23.62991c0,17.42915 -10.72563,27.81961 -28.65755,27.81961h-5.36282v-51.11434zM406.70976,398.83558c30.50102,0 48.26534,-14.58016 48.26534,-39.38318c0,-20.61332 -15.92086,-32.67966 -43.2377,-32.67966h-39.21559c-4.69246,0 -6.70352,5.5304 -6.53593,10.55804l12.23392,1.00553v91.67064l-4.86005,0.33518c-8.21181,0.50276 -7.20628,9.55252 -7.37387,11.2284h39.88594c8.3794,0 7.70905,-9.21734 7.54146,-10.89322l-14.24498,-1.00553v-30.83619zM496.70452,429.67178v-107.92667l-33.18242,3.68694c-0.16759,2.17864 -0.16759,9.7201 6.20076,10.39046l6.53593,0.67035v93.5141l-5.19523,0.33518c-8.21181,0.50276 -7.20628,9.55252 -7.37387,11.2284h37.37212c8.3794,0 7.70905,-9.21734 7.54146,-10.89322zM566.08595,425.64966c-4.52488,3.01658 -9.55252,4.86005 -15.92086,4.86005c-7.87664,0 -12.06634,-4.1897 -12.06634,-11.06081c0,-9.04975 7.37387,-12.5691 15.08292,-12.5691c4.35729,0 8.71458,0.67035 12.90428,2.17864zM586.53168,432.68836v-44.746c0,-23.7975 -13.57463,-33.5176 -34.52313,-33.5176c-17.93192,0 -29.99825,7.87664 -29.99825,18.43468c0,7.87664 7.0387,11.39598 15.58568,10.55804c0,-10.22287 6.70352,-15.58568 13.23945,-15.58568c9.88769,0 15.25051,5.19523 15.25051,21.28368v7.37387c-4.35729,-0.67035 -9.04975,-1.00553 -13.74222,-1.00553c-26.31132,0 -35.52866,11.73116 -35.52866,25.30579c0,14.58016 10.89322,23.29473 26.14373,23.29473c9.7201,0 17.76433,-3.18417 24.46785,-8.71458c2.17864,5.02764 6.87111,8.71458 16.08845,8.71458c11.39598,0 13.9098,-5.36282 13.9098,-10.05528zM692.78248,429.67178v-40.05353c0,-25.64096 -15.58568,-35.19348 -30.83619,-35.19348c-11.73116,0 -19.10503,5.5304 -25.64096,11.2284h-0.50276l-1.17312,-10.22287l-30.33343,3.68694c-0.16759,2.17864 -0.16759,9.7201 6.20076,10.39046l6.53593,0.67035v59.82892l-5.19523,0.33518c-8.21181,0.50276 -7.20628,9.55252 -7.37387,11.2284h37.37212c8.3794,0 7.70905,-9.21734 7.54146,-10.89322l-11.89875,-1.00553v-50.77916c5.69799,-4.86005 10.55804,-7.70905 19.94297,-7.70905c9.04975,0 14.91533,4.02211 14.91533,17.59674v41.22665l-4.86005,0.33518c-8.21181,0.50276 -7.20628,9.55252 -7.37387,11.2284h37.03695c8.3794,0 7.70905,-9.21734 7.54146,-10.89322zM742.7237,368.66974h21.95403c8.54699,0 8.3794,-9.55252 8.21181,-11.73116h-30.16584v-23.62991l-20.44574,2.17864v21.45126h-5.69799c-7.0387,0 -8.21181,6.36834 -8.21181,11.73116h13.9098v45.41635c0,15.08292 3.01658,29.99825 24.30026,29.99825c12.06634,0 28.15478,-6.70352 28.15478,-15.92086c0,-3.68694 -2.68141,-6.87111 -3.51935,-6.87111c-6.20076,5.19523 -11.06081,7.37387 -19.77538,7.37387c-5.02764,0 -8.71458,-4.1897 -8.71458,-13.57463z" id="CompoundPath 1" fill="#005048"/></g></svg>